<svg xmlns="http://www.w3.org/2000/svg" viewBox="0 0 32 32" shape-rendering="crispEdges">
  <rect width="32" height="32" fill="#0d0820"/>
  <rect x="2" y="2" width="1" height="1" fill="#ffffff" opacity="0.8"/>
  <rect x="29" y="4" width="1" height="1" fill="#ffffff" opacity="0.6"/>
  <rect x="5" y="28" width="1" height="1" fill="#ffffff" opacity="0.7"/>
  <rect x="28" y="26" width="1" height="1" fill="#ffffff" opacity="0.5"/>
  <rect x="1" y="15" width="1" height="1" fill="#ffffff" opacity="0.4"/>
  <rect x="30" y="18" width="1" height="1" fill="#ffffff" opacity="0.5"/>
  <rect x="11" y="2" width="10" height="2" fill="#3d1f6e"/>
  <rect x="11" y="4" width="10" height="2" fill="#3d1f6e"/>
  <rect x="9" y="6" width="14" height="2" fill="#3d1f6e"/>
  <rect x="11" y="8" width="10" height="8" fill="#e8a84a"/>
  <rect x="12" y="10" width="2" height="2" fill="#1a0840"/>
  <rect x="18" y="10" width="2" height="2" fill="#1a0840"/>
  <rect x="13" y="10" width="1" height="1" fill="#ffffff" opacity="0.6"/>
  <rect x="19" y="10" width="1" height="1" fill="#ffffff" opacity="0.6"/>
  <rect x="13" y="14" width="2" height="1" fill="#c06040"/>
  <rect x="17" y="14" width="2" height="1" fill="#c06040"/>
  <rect x="15" y="15" width="2" height="1" fill="#c06040"/>
  <rect x="9" y="16" width="14" height="8" fill="#5535a0"/>
  <rect x="9" y="20" width="14" height="2" fill="#3d2878"/>
  <rect x="15" y="20" width="2" height="2" fill="#f0a020"/>
  <rect x="7" y="16" width="2" height="6" fill="#e8a84a"/>
  <rect x="23" y="16" width="2" height="6" fill="#e8a84a"/>
  <rect x="25" y="12" width="1" height="10" fill="#c8c8d8"/>
  <rect x="24" y="16" width="3" height="1" fill="#f0a020"/>
  <rect x="9" y="24" width="6" height="6" fill="#2a1450"/>
  <rect x="17" y="24" width="6" height="6" fill="#2a1450"/>
  <rect x="8" y="28" width="7" height="2" fill="#1a0c30"/>
  <rect x="17" y="28" width="7" height="2" fill="#1a0c30"/>
</svg>